#!OML:ASF F:\VICON\USERDATA\INSTALL\rory3\rory3.ASF
:FULLY-SPECIFIED
:DEGREES
246
root -1.12204 16.1325 6.72524 1.39653 0.701958 -2.05696
lowerback 12.0571 1.37973 -2.97176
upperback -4.63061 1.5956 2.14387
thorax -12.0198 1.09188 3.67455
lowerneck -10.0599 -6.03299 -3.99783
upperneck 18.7809 -8.44622 4.1197
head 7.79459 -3.93761 1.17706
rclavicle 8.07563e-016 -2.78299e-015
rhumerus -25.9372 1.94576 -83.1269
rradius 37.3539
rwrist -3.80637
rhand -11.0335 19.9757
rfingers 7.12502
rthumb 14.9882 -9.46189
lclavicle 8.07563e-016 -2.78299e-015
lhumerus -41.7438 8.37004 83.2789
lradius 22.0995
lwrist -1.39673
lhand -3.81921 20.0115
lfingers 7.12502
lthumb 21.9276 48.7888
rfemur 16.3202 13.5455 31.2508
rtibia 3.18055e-015
rfoot -10.9119 -9.58065
rtoes -15.8025
lfemur -36.123 -22.0001 -9.48545
ltibia 27.9668
lfoot -10.275 15.8015
ltoes 4.10553
247
root -1.10429 16.1187 6.85631 1.39161 0.45765 -2.16198
lowerback 12.0171 1.42026 -2.87469
upperback -4.62346 1.66594 2.13017
thorax -11.9897 1.11633 3.58855
lowerneck -10.0479 -6.06433 -3.9857
upperneck 18.823 -8.49189 4.10555
head 7.80721 -3.95964 1.16557
rclavicle -2.43263e-014 -5.56597e-015
rhumerus -25.9696 2.21267 -83.278
rradius 37.3541
rwrist -3.78146
rhand -11.078 19.8786
rfingers 7.12502
rthumb 14.9453 -9.56215
lclavicle -2.43263e-014 -5.56597e-015
lhumerus -41.6328 8.09679 83.3561
lradius 22.1329
lwrist -0.842276
lhand -4.05569 19.9269
lfingers 7.12502
lthumb 21.7005 48.7306
rfemur 16.8427 13.5096 31.3828
rtibia 4.77083e-014
rfoot -11.215 -9.42591
rtoes -16.0976
lfemur -36.3524 -23.1052 -8.73034
ltibia 27.4745
lfoot -11.1634 17.088
ltoes 6.20555
248
root -1.08694 16.11 6.98614 1.46962 0.238585 -2.09132
lowerback 11.9209 1.47507 -3.00579
upperback -4.64234 1.71626 2.097
thorax -11.9617 1.14859 3.61611
lowerneck -9.99648 -6.02635 -3.93401
upperneck 18.8338 -8.42667 3.9886
head 7.79102 -3.93668 1.12767
rclavicle -6.08778e-015 2.5842e-015
rhumerus -26.0194 2.2667 -83.3697
rradius 37.257
rwrist -3.72323
rhand -11.1265 19.9804
rfingers 7.12502
rthumb 14.8987 -9.46386
lclavicle -6.08778e-015 2.5842e-015
lhumerus -41.4529 8.09366 83.3408
lradius 22.1268
lwrist -0.642322
lhand -4.06669 19.8405
lfingers 7.12502
lthumb 21.6899 48.6454
rfemur 17.2514 13.4681 31.2832
rtibia 5.08889e-014
rfoot -11.4316 -9.24341
rtoes -16.9292
lfemur -36.6233 -24.1374 -8.20686
ltibia 27.0786
lfoot -12.1723 18.2093
ltoes 8.62087
249
root -1.0665 16.0958 7.12029 1.46685 0.166593 -1.97457
lowerback 11.9564 1.4994 -3.15748
upperback -4.61795 1.72087 2.08202
thorax -11.9614 1.16129 3.68446
lowerneck -10.2093 -5.91661 -4.03489
upperneck 19.0958 -8.2636 3.99459
head 7.91365 -3.85846 1.15387
rclavicle 8.22472e-015 4.77083e-015
rhumerus -25.9553 2.10937 -83.3523
rradius 36.965
rwrist -3.43408
rhand -11.1338 20.1561
rfingers 7.12502
rthumb 14.8916 -9.28863
lclavicle 8.22472e-015 4.77083e-015
lhumerus -41.1756 8.27459 83.2905
lradius 22.0083
lwrist -0.752053
lhand -4.00105 19.6749
lfingers 7.12502
lthumb 21.753 48.4726
rfemur 17.8032 13.2682 31.1378
rtibia 2.54444e-014
rfoot -11.7793 -8.99361
rtoes -17.1981
lfemur -36.6688 -24.6044 -8.14777
ltibia 26.7486
lfoot -12.3774 18.916
ltoes 8.19188
250
root -1.04471 16.0746 7.26016 1.33837 0.112803 -1.83721
lowerback 12.039 1.52161 -3.31896
upperback -4.52873 1.71652 2.04231
thorax -11.9141 1.16704 3.73253
lowerneck -10.4155 -6.07606 -4.09813
upperneck 19.1125 -8.47944 4.05065
head 7.97136 -3.95637 1.15234
rclavicle -1.86361e-015 -6.36111e-015
rhumerus -25.7706 2.05651 -83.4185
rradius 36.5326
rwrist -3.32638
rhand -11.1619 20.2138
rfingers 7.12502
rthumb 14.8646 -9.23295
lclavicle -1.86361e-015 -6.36111e-015
lhumerus -40.9806 8.38833 83.2469
lradius 22.123
lwrist -0.906876
lhand -3.95728 19.6659
lfingers 7.12502
lthumb 21.795 48.4587
rfemur 18.5424 13.0254 31.0008
rtibia -1.59028e-014
rfoot -12.0325 -8.76294
rtoes -17.8596
lfemur -36.5352 -24.9808 -8.2687
ltibia 26.4825
lfoot -12.4578 19.4797
ltoes 8.33163
251
root -1.02324 16.0518 7.3917 1.29594 -0.00526958 -1.90043
lowerback 12.2419 1.52649 -3.29918
upperback -4.58244 1.72095 2.03997
thorax -12.0974 1.17185 3.71605
lowerneck -10.3479 -6.04548 -4.04636
upperneck 19.0572 -8.44763 4.05664
head 7.9373 -3.93919 1.15214
rclavicle -9.86469e-015 -1.59028e-014
rhumerus -25.8922 2.15122 -83.5743
rradius 36.2488
rwrist -3.31901
rhand -11.2237 20.0721
rfingers 7.12502
rthumb 14.805 -9.37907
lclavicle -9.86469e-015 -1.59028e-014
lhumerus -41.0473 8.50858 83.1074
lradius 22.3412
lwrist -1.02404
lhand -3.92653 19.371
lfingers 7.12502
lthumb 21.8245 48.1603
rfemur 19.1179 12.8693 31.038
rtibia -1.59028e-014
rfoot -12.1319 -8.45167
rtoes -18.0401
lfemur -36.4941 -25.2192 -8.15942
ltibia 26.3204
lfoot -12.6903 19.8821
ltoes 8.92311
252
root -1.00071 16.0317 7.52865 1.33883 -0.181222 -2.02945
lowerback 12.277 1.52477 -3.21713
upperback -4.62804 1.73562 2.07151
thorax -12.1702 1.1762 3.70068
lowerneck -10.2972 -6.07143 -4.14777
upperneck 19.0235 -8.47047 4.08083
head 7.92375 -3.9565 1.17573
rclavicle 5.09386e-016 9.34288e-015
rhumerus -26.1778 2.21239 -83.6876
rradius 36.1051
rwrist -3.18424
rhand -11.421 19.9038
rfingers 7.12502
rthumb 14.6149 -9.56123
lclavicle 5.09386e-016 9.34288e-015
lhumerus -41.1547 8.3188 83.1904
lradius 22.5719
lwrist -0.711706
lhand -4.14082 19.4004
lfingers 7.12502
lthumb 21.6187 48.2136
rfemur 19.5988 12.7915 31.1075
rtibia -9.54166e-015
rfoot -12.2086 -8.1666
rtoes -18.4799
lfemur -36.4201 -25.1192 -8.14489
ltibia 26.2355
lfoot -12.7689 19.9752
ltoes 9.88053
